<svg id="Layer_1" enable-background="new 0 0 512 512" viewBox="0 0 512 512" xmlns="http://www.w3.org/2000/svg" xmlns:xlink="http://www.w3.org/1999/xlink"><linearGradient id="SVGID_1_" gradientTransform="matrix(1 0 0 -1 0 512.39)" gradientUnits="userSpaceOnUse" x1="256.05" x2="256.05" y1="512.34" y2=".34"><stop offset="0" stop-color="#f704fe"></stop><stop offset="1" stop-color="#24bce3"></stop></linearGradient><g clip-rule="evenodd" fill-rule="evenodd"><circle cx="256" cy="256" fill="url(#SVGID_1_)" r="256"></circle><g fill="#fffffe"><path d="m192.1 151.1c2-5.7 8.7-7.6 13.9-4.9l9.1 4.8c.6.3 1.6.7 3-.2 1.8-1.2 3.1-3.9 3.1-6.3-.1-1.8-.9-3-2.5-3.8l-24-12.2c-1.6-.8-3.6-.8-4.6 1.1l-75.6 144.6h33.8z"></path><path d="m112.4 280.9v85.6l21.2 17.6h95.2l17.1-29c.6-1 1.6-1.6 2.8-1.6h16.3c1.2 0 2.3.7 2.9 1.7l15.5 28.9h95.1l21.2-17.6v-85.6zm98.7 90.3h-64.9c-9.7 0-17.5-7.9-17.5-17.5v-42.7c0-9.7 7.9-17.5 17.5-17.5h64.8c9.7 0 17.5 7.9 17.5 17.5v42.7c.3 9.8-7.6 17.5-17.4 17.5zm172-17.4c0 9.7-7.9 17.5-17.5 17.5h-64.8c-9.7 0-17.5-7.9-17.5-17.5v-42.8c0-9.7 7.9-17.5 17.5-17.5h64.8c9.7 0 17.5 7.9 17.5 17.5z"></path><path d="m211.1 300.1h-64.8c-6.1 0-11 4.9-11 11v42.7c0 6.1 4.9 11 11 11h64.8c6.1 0 11-4.9 11-11v-42.7c0-6.1-4.9-11-11-11z"></path><path d="m365.6 300.1h-64.8c-6.1 0-11 4.9-11 11v42.7c0 6.1 4.9 11 11 11h64.8c6.1 0 11-4.9 11-11v-42.7c-.1-6.1-5-11-11-11z"></path><path d="m293.9 150.8c1.4.9 2.4.5 3 .2l9.1-4.8c5.2-2.7 11.9-.8 13.9 4.9l43.8 123.2h33.8l-75.6-144.6c-1-1.9-3-1.9-4.6-1.1l-24 12.2c-1.6.8-2.4 2-2.5 3.8-.2 2.3 1.2 5 3.1 6.2z"></path></g></g></svg>